inDegrees=yes
name=ik_coleta2_trike_mov
DataType=double
version=3
OpenSimVersion=4.4-2022-07-23-0e9fedc
endheader
time	hip_flexion_r	knee_angle_r	hip_flexion_l	knee_angle_l	gearToGround_coord_0
32.53635406494141	94.91698698496695	-67.4711127577766	101.1144658769943	-106.7137979940551	-759.3888365113866
32.54235696792603	94.30878834182697	-66.84754279419472	101.7163806779495	-107.2978337885998	-760.9716103790965
32.54734516143799	94.30965728006113	-66.84847512703367	101.7163025314039	-107.2978480753572	-760.9713026135613
32.55232715606689	93.4408192936626	-65.97257246091841	102.6195589694044	-108.0649552862514	-763.258861173124
32.55638003349304	93.4408192936626	-65.97257246091841	102.6195589694044	-108.0649552862514	-763.258861173124
32.56135296821594	92.82942314698373	-65.36729211283591	103.2318350538644	-108.6296530113641	-764.8883739786646
32.56634092330933	92.82818074796005	-65.36590939283684	103.2319177641301	-108.6296973401318	-764.888560282326
32.57039999961853	92.19049993152996	-64.74518218987762	103.9006237175909	-109.1920039960647	-766.6090201795681
32.5754017829895	92.19049993152996	-64.74518218987762	103.9006237175909	-109.1920039960647	-766.6090201795681
32.5833420753479	92.18875768134717	-64.74333781356714	103.9009440109124	-109.192199745124	-766.6097643505095
32.58939695358276	92.18451411658394	-64.7394224413012	103.9056086018856	-109.1950719861264	-766.6207066059554
32.5943431854248	91.52156428547713	-64.10584872892215	104.6056178760102	-109.7854944521422	-768.4337727257497
32.5983419418335	91.51956338507465	-64.10390582636758	104.6062337668339	-109.7855743483394	-768.4350520472682
32.60336089134216	90.88396505896606	-63.50829949518291	105.4729646006094	-110.5799826448511	-770.1980874395335
32.61233806610107	90.29590493799309	-62.96891045010137	106.0328212294103	-110.793544490784	-771.852034926075
32.62539887428284	89.72656201880309	-62.45742336865294	106.6357728665931	-111.2380792018334	-773.476625798696
32.63133502006531	89.18303717399033	-61.97982466375472	107.1982316224211	-111.6691033136492	-775.0537288562559
32.64534401893616	89.18005482195024	-61.97665271557746	107.1985922051962	-111.6695046803093	-775.0549089894846
32.6533670425415	89.08825927655087	-61.89766824381978	107.3127444574907	-111.8399729091631	-775.3314430291018
32.65937614440918	88.55540353314213	-61.44233306776002	107.9996318864634	-112.3509908631543	-776.9088614702873
32.66333293914795	88.49868532690594	-61.39448234381638	108.0184124452537	-112.336120250111	-777.0770094045024
32.66934394836426	87.98946024890242	-60.97163316179541	108.8310963562898	-112.8686418898438	-778.6157715313786
32.67634701728821	87.92052761250709	-60.91526131037448	108.8352316119965	-112.8953362554186	-778.8259187702587
32.68033599853516	87.84314409120148	-60.85201189229674	108.8429514303631	-112.88627169722	-779.0604739239731
32.68636584281921	87.76493929686627	-60.78880844207256	108.8714951323764	-112.8627158188913	-779.3040337959397
32.697350025177	87.03935305408746	-60.21442941065324	109.8755166173335	-113.5071672730621	-781.5678925030336
32.70338606834412	86.92703987745749	-60.12651851272187	109.8990717343287	-113.4826668490518	-781.9166300534891
32.70739197731018	86.48326423475831	-59.79270064369998	110.3854296279568	-113.6104891699483	-783.3557514415622
32.7113950252533	86.38983269082742	-60.0385241640052	110.8147531625788	-113.8369774684562	-784.4992916242468
32.71634602546692	85.93916062548863	-59.72133014270195	111.3803193479816	-114.156438071451	-786.0321589388695
32.72036910057068	85.47733088567679	-59.41028966149904	111.9907408663039	-114.4842780331642	-787.6452413268389
32.72540307044983	85.04043429714297	-59.13115998482083	112.5642998038416	-114.7402488677045	-789.2128706946454
32.73033690452576	84.71815155342351	-58.93499801003654	112.977994138522	-114.8259619844173	-790.3993446001635
32.73433995246887	83.88206751338312	-58.47208014324026	114.1093890692862	-115.2880146570212	-793.6164913356121
32.73838305473328	83.5946534396363	-58.33009026578686	114.7634533930544	-115.6523218787648	-794.7741636887002
32.74336099624634	83.21071777327334	-58.15636434024289	115.0545173342965	-115.5049762089092	-796.3708210071322
32.74932813644409	82.8767920091488	-58.02181378557917	115.5223946684833	-115.6328017918086	-797.8117571645354
32.75435590744019	82.14861642480734	-57.79072006215132	116.824173837382	-115.9651041711634	-801.1532342236118
32.75835800170898	81.71717081766026	-57.70324727571695	117.2244047062254	-115.9504901293295	-803.2927068805595
32.76234412193298	81.46989145752886	-57.67342885580486	117.6013494210092	-115.968634162916	-804.5850095401684
32.76734495162964	81.02389798079396	-57.66490025536046	118.2965616379327	-115.9697767704887	-807.0657118203992
32.77139902114868	80.53956079769888	-57.73911313453731	119.1104715142334	-116.0042041479846	-810.0384257447752
32.77537512779236	80.13986970367024	-57.88932924023391	119.7578921470913	-115.8386816735671	-812.793097851161
32.77935004234314	80.04028501317597	-57.94318039685925	119.918707139664	-115.7704864111939	-813.5353060890525
32.78334617614746	79.63688896836646	-58.25267425430646	120.6644784526218	-115.5679097770066	-816.8555005023849
32.79139399528503	79.52096021463618	-58.37674162967962	120.8600650484358	-115.4360577345763	-817.9314867548945
32.79533314704895	79.20641699253822	-58.83529570194735	121.4658119223644	-115.0489504583412	-821.2760324101154
32.80132007598877	79.17680343995869	-58.89082484854638	121.5279899020241	-115.0057136162226	-821.633698939155
32.8053731918335	78.93674850564996	-59.47296414055233	122.1005957089008	-114.5746200993769	-825.0030569476123
32.81133985519409	78.75287182829005	-60.22797495448029	122.5824107185505	-113.9411920720587	-828.6819045537846
32.81635499000549	78.75260932645379	-60.22923781828344	122.5828699567657	-113.94037373348	-828.6861393516315
32.82138299942017	78.65856033338461	-60.97395811762779	122.8861485133216	-113.2881469702749	-831.8520508026811
32.82538318634033	78.65842653471076	-60.97415243597175	122.8861498560605	-113.2881431179776	-831.8520388341751
32.83434700965881	78.65842653471076	-60.97415243597175	122.8861498560605	-113.2881431179776	-831.8520388341751
32.83938908576965	78.62178084126475	-61.81260224288317	123.0847349870488	-112.5376578647008	-835.0543891186916
32.84535098075867	78.62178084126475	-61.81260224288317	123.0847349870488	-112.5376578647008	-835.0543891186916
32.85034894943237	78.66710438013874	-63.12808338456704	123.2347362314891	-111.3277173636917	-839.5598631099836
32.86135792732239	78.66710438013874	-63.12808338456704	123.2347362314891	-111.3277173636917	-839.5598631099836
32.86734509468079	78.66710438013874	-63.12808338456704	123.2347362314891	-111.3277173636917	-839.5598631099836
32.87440395355225	78.74784678574417	-63.99588419456235	123.1546969585542	-110.554692575713	-842.2837832774618
32.8894419670105	78.74768582915092	-63.99505953150073	123.1546954307351	-110.5546953922832	-842.2837521191084
32.89535999298096	78.86463990791219	-64.89584321553235	122.8515923122809	-109.5231472225694	-844.9585125680987
32.90136790275574	78.86463990791219	-64.89584321553235	122.8515923122809	-109.5231472225694	-844.9585125680987
32.9053909778595	79.00497564196129	-65.76793129308265	122.9676191977003	-108.9300663508476	-847.4271125231273
32.90935277938843	79.00497564196129	-65.76793129308265	122.9676191977003	-108.9300663508476	-847.4271125231273
32.91333484649658	79.17018283459477	-66.64945007401727	122.5237467273239	-107.811503474799	-849.8252911331808
32.91734504699707	79.17018283459477	-66.64945007401727	122.5237467273239	-107.811503474799	-849.8252911331808
32.92239093780518	79.35892888967696	-67.54384326478727	122.5790572880763	-107.2747470773805	-852.1734311500084
32.9273419380188	79.56137529752395	-68.41618015716935	122.3006944628832	-106.4768159702459	-854.3944116300083
32.93235492706299	79.56190840147642	-68.41802741308639	122.3006913981783	-106.4766721553515	-854.3947908230773
32.9373459815979	79.57817879938504	-68.48546531105134	122.273668554365	-106.4122785961112	-854.5674208269785
32.94334983825684	79.77862401708778	-69.28203640647439	122.0558237235573	-105.6306522148779	-856.5379907530618
32.94934487342834	79.79638785667564	-69.35023586934007	122.0145674506972	-105.6013560692761	-856.7048366591968
32.95539283752441	80.0238744707903	-70.19494143926384	121.6134589312778	-104.7724736369775	-858.7462907224177
32.96034908294678	80.05118733809638	-70.29317891443826	121.6454607398501	-104.7170349649027	-858.979375371508
32.968346118927	80.1171806298953	-70.52780536548863	121.530128172619	-104.4856768681809	-859.5375712606585
32.9744029045105	80.70854383575924	-72.49603538829339	120.7287855676736	-102.6272545623544	-864.1046903136223
32.97933888435364	80.7878640747374	-72.7448064652351	120.648071659538	-102.4013100035908	-864.6706573690523
32.98434400558472	81.29874020593778	-74.28001613638087	119.9393284144949	-100.7944398459728	-868.1055209942491
32.98840498924255	81.36882713453016	-74.48261147950372	119.8582448692212	-100.7427430173328	-868.5543028564343
32.99935984611511	81.64118049485893	-75.25376446045	119.4551992981979	-100.0050956450689	-870.2439005008346
33.00436902046204	81.7321187388883	-75.50596822089929	119.3667284221846	-99.73459266653113	-870.792557253556
33.00935101509094	82.13003698860699	-76.58109325299226	118.6761458237144	-98.67667438411281	-873.1140713784532
33.0143449306488	82.220571285486	-76.81970225201435	118.6623722284241	-98.49504379289323	-873.6268995596403
33.02144503593445	82.51672201866639	-77.58594545053218	118.2469583935281	-97.75149375540842	-875.2628913695848
33.02638506889343	82.64365293969537	-77.90817650815072	118.0706975616674	-97.4311481512929	-875.9488852194969
33.03335213661194	82.75698928188415	-78.1927881588238	117.8143783129716	-97.13767773216259	-876.5506258359927
33.04139089584351	83.03909248569941	-78.88939439350979	117.5122833794222	-96.47546241489442	-878.0186989000559
33.04835081100464	83.18333027956274	-79.23930425266759	117.227298058577	-96.13127988200583	-878.7563453270384
33.05338215827942	83.44427265347532	-79.86215907296733	116.9096678707915	-95.54454849039904	-880.060913933233
33.05739593505859	83.64045311272335	-80.32255031274174	116.6622562456645	-95.06551859931935	-881.020756162966
33.06338286399841	83.92153834581532	-80.97041686797776	116.2637718306393	-94.43902813912702	-882.3693086688019
33.06935095787048	84.12116814464673	-81.42265438663098	115.8940364147979	-93.98864302708577	-883.3077481457362
33.07339692115784	84.64523814014647	-82.58032154655096	115.2178685013856	-92.74782091553186	-885.7041674679499
33.07735586166382	84.86121662054104	-83.0463132951988	114.8940281484887	-92.41066728914888	-886.6629631494327
33.08435201644897	85.19303697203728	-83.74924283070708	114.4623059359056	-91.72059477904146	-888.1095401135696
33.09437608718872	85.42673678872987	-84.23562420844605	114.147457266006	-91.23314742870814	-889.1103009163829
33.09836411476135	85.69704334174506	-84.78964429052266	113.7814704742083	-90.66646080622961	-890.248871340092
33.10538411140442	86.20511722133371	-85.80702919305239	113.0731375088981	-89.67117437253762	-892.3355880502905
